# Blender 4.1.1
# www.blender.org
mtllib Pino.mtl
o Tree_Spruce_small_01
v 0.042520 0.001317 -1.537884
v 0.006745 2.505755 -0.920518
v 1.043825 0.013199 -1.035151
v 0.601565 2.505755 -0.529619
v 1.294383 0.002634 -0.062740
v 0.819720 2.505755 -0.034876
v 1.174653 0.000000 1.116187
v 0.526660 2.505755 0.492742
v 0.013309 0.006111 1.287196
v 0.012394 2.505755 0.637810
v -0.858286 0.015368 1.045321
v -0.571209 2.505755 0.380258
v -1.562519 0.000000 0.097213
v -0.758173 2.505755 -0.084124
v -1.041097 0.016969 -0.949218
v -0.551628 2.505755 -0.621524
v 0.006318 0.787547 -1.100554
v 0.786864 0.696909 -0.792332
v 1.064123 0.592623 -0.087759
v 0.785878 0.649809 0.689224
v 0.069719 0.677119 1.042034
v -0.717031 0.801769 0.656347
v -0.943098 1.071762 -0.052684
v -0.771627 0.939868 -0.794863
v -0.188061 7.010739 -0.756583
v 0.290054 7.010739 -0.442380
v 0.465406 7.010739 -0.044706
v 0.229846 7.010739 0.379393
v -0.183521 7.010739 0.495998
v -0.652620 7.010739 0.288978
v -0.802900 7.010739 -0.084292
v -0.636881 7.010739 -0.516253
v -0.016507 9.608961 -0.671436
v 0.400991 9.608961 -0.397068
v 0.554112 9.608961 -0.049812
v 0.348416 9.608961 0.320519
v -0.012543 9.608961 0.422340
v -0.422168 9.608961 0.241567
v -0.553396 9.608961 -0.084378
v -0.408425 9.608961 -0.461575
v -0.040282 11.913836 -0.530971
v 0.277220 11.913836 -0.322318
v 0.393666 11.913836 -0.058235
v 0.237237 11.913836 0.223396
v -0.037267 11.913836 0.300830
v -0.348781 11.913836 0.163354
v -0.448578 11.913836 -0.084522
v -0.338329 11.913836 -0.371374
v 0.033596 13.778689 -0.420625
v 0.272542 13.778689 -0.263596
v 0.360178 13.778689 -0.064852
v 0.242452 13.778689 0.147099
v 0.035865 13.778689 0.205375
v -0.198575 13.778689 0.101913
v -0.273681 13.778689 -0.084635
v -0.190710 13.778689 -0.300515
v 0.084107 16.879791 -0.084979
v -0.180565 4.936827 -5.226890
v -0.261959 9.201357 -1.152861
v 3.620818 4.218381 -3.589862
v 0.764769 9.559946 -1.054681
v 5.079798 5.016200 -0.034793
v 1.054732 9.407199 0.014255
v 3.277211 4.295047 3.438053
v 0.720173 9.469029 1.003659
v -0.097210 4.722429 5.034090
v -0.257912 9.222383 1.180320
v -3.621754 3.838278 3.463847
v -1.165266 9.303744 0.919963
v -5.497370 4.782670 -0.014644
v -1.576392 9.317289 0.010012
v -3.779635 4.032656 -3.869971
v -1.158731 9.321651 -0.917727
v -0.168682 4.538516 -4.796511
v -0.250469 8.803064 -0.722448
v 3.358216 3.786446 -3.283331
v 0.499197 9.127915 -0.750831
v 4.658297 4.608407 -0.074419
v 0.633214 8.999368 -0.024757
v 2.999346 3.901724 3.104393
v 0.439526 9.075553 0.672475
v -0.094530 4.340490 4.591776
v -0.256205 8.840463 0.737990
v -3.336547 3.442404 3.138911
v -0.879855 8.907870 0.595198
v -5.072283 4.378571 -0.045410
v -1.151305 8.913190 -0.020515
v -3.506705 3.601387 -3.571823
v -0.886722 8.890363 -0.618760
v -0.194321 8.047374 -3.914690
v -0.133665 12.131866 -1.111749
v 2.485800 8.702781 -2.707879
v 0.717521 12.182327 -0.837717
v 3.639343 8.072754 0.007425
v 0.943336 12.064045 0.008121
v 2.510777 8.595366 2.571223
v 0.653026 12.099952 0.778272
v -0.100873 8.051560 3.842580
v -0.119341 12.089947 1.063899
v -2.697683 8.677518 2.830044
v -0.931744 12.186461 0.804561
v -4.050067 7.865182 -0.018978
v -1.175381 12.102331 -0.007074
v -2.814588 8.549295 -2.644203
v -0.922203 12.159019 -0.790922
v -0.198225 11.571195 -2.961564
v -0.143685 14.361751 -0.959426
v 2.146867 11.244316 -2.219886
v 0.433240 14.250103 -0.576833
v 2.946612 11.921183 0.015224
v 0.760071 14.371716 -0.012105
v 2.191029 11.167036 2.363499
v 0.518376 14.384105 0.675878
v 0.042355 11.449960 2.978358
v -0.149998 14.333179 0.946075
v -2.330584 10.816047 2.362193
v -0.787710 14.265605 0.641202
v -2.997831 11.300944 0.048661
v -1.070755 14.264134 -0.004251
v -2.319905 10.852952 -2.147838
v -0.752579 14.217031 -0.600473
v -0.157066 13.922008 -2.022646
v 1.070133 14.102304 -1.267941
v 1.944105 13.770941 -0.007313
v 1.163154 14.092908 1.314350
v -0.093854 18.255520 -0.000906
v -0.110086 13.840386 2.085999
v -1.503355 14.358571 1.398074
v -2.273578 14.056408 0.001967
v -1.419561 14.255610 -1.372040
v 0.889405 15.162656 -0.003317
v -1.346073 15.463615 0.006347
v 0.631530 15.387584 -0.769583
v 0.657903 15.364036 0.782984
v -0.886527 15.261957 0.780381
v -0.135312 15.295326 -0.962499
v -0.143674 15.305131 1.089999
v -0.864873 15.444634 -0.781345
v -0.190548 7.656068 -3.479018
v -0.129328 11.740559 -0.676094
v 2.162589 8.317910 -2.408946
v 0.395402 11.797421 -0.537623
v 3.192574 7.697878 -0.011322
v 0.496550 11.689172 -0.010062
v 2.189939 8.217654 2.262524
v 0.332683 11.722222 0.469095
v -0.128258 7.660730 3.407403
v -0.145292 11.699058 0.628688
v -2.403821 8.268926 2.526160
v -0.637455 11.777847 0.501121
v -3.623666 7.461616 -0.006566
v -0.748963 11.698744 0.005133
v -2.507887 8.153211 -2.339705
v -0.615553 11.762934 -0.486372
v -0.186547 11.169055 -2.534053
v -0.133715 13.959515 -0.531932
v 1.857444 10.842577 -1.904597
v 0.142997 13.848268 -0.262414
v 2.542440 11.491037 0.043667
v 0.355780 13.941569 0.014598
v 1.912874 10.755967 2.047749
v 0.239009 13.972901 0.361340
v 0.069535 11.065108 2.538913
v -0.125549 13.948215 0.506562
v -2.001021 10.441667 2.059486
v -0.459513 13.891171 0.337096
v -2.544727 10.935303 0.060613
v -0.617617 13.898514 0.006744
v -1.982831 10.484359 -1.847710
v -0.416632 13.848365 -0.299149
v -0.193347 13.556539 -1.570721
v 0.742927 13.750887 -0.941486
v 1.487536 13.411145 0.012526
v 0.832773 13.726068 1.005190
v -0.112293 17.632053 0.004062
v -0.133750 13.460773 1.642713
v -1.229331 13.955915 1.070219
v -1.844138 13.656704 0.009479
v -1.144735 13.876568 -1.022912
v 0.394575 14.872122 0.011775
v -0.874718 15.127732 -0.001489
v 0.280404 15.105293 -0.415214
v 0.289278 15.071770 0.453780
v -0.585016 14.938221 0.409212
v -0.153956 15.008353 -0.466133
v -0.142069 15.000566 0.601776
v -0.583167 15.143572 -0.380468
vn 0.4560 0.1343 -0.8798
vn 0.9196 0.1374 -0.3679
vn 0.9096 0.1365 0.3924
vn 0.3724 0.1804 0.9104
vn -0.4041 0.1827 0.8963
vn -0.9250 0.1324 0.3561
vn -0.9453 0.1415 -0.2939
vn -0.3972 0.1245 -0.9092
vn 0.0261 -0.9997 -0.0032
vn -0.3802 0.3485 -0.8568
vn -0.8536 0.3812 -0.3552
vn -0.7484 0.4482 0.4890
vn -0.2926 0.4146 0.8617
vn 0.2426 0.4878 0.8386
vn 0.8583 0.4873 0.1610
vn 0.8883 0.3831 -0.2533
vn 0.3864 0.4497 -0.8053
vn -0.0008 -0.9997 0.0252
vn -0.0022 -0.9999 -0.0103
vn -0.0057 -1.0000 -0.0028
vn -0.0052 -1.0000 -0.0024
vn -0.0107 -0.9999 0.0002
vn 0.9127 0.0709 -0.4024
vn -0.4037 0.0112 0.9148
vn -0.4720 0.0117 -0.8815
vn 0.5484 0.0541 -0.8345
vn 0.8721 0.0696 0.4844
vn -0.9276 -0.0092 0.3735
vn 0.2713 0.0421 0.9616
vn -0.9334 -0.0093 -0.3587
vn -0.4032 0.0524 0.9136
vn 0.8738 -0.0289 0.4854
vn 0.5492 -0.0089 -0.8357
vn -0.4712 0.0600 -0.8800
vn -0.9240 0.0887 0.3720
vn 0.2715 0.0094 0.9624
vn 0.9145 -0.0320 -0.4033
vn -0.9297 0.0893 -0.3573
vn -0.9326 0.0424 -0.3584
vn -0.4034 0.0439 0.9140
vn 0.8725 0.0625 0.4846
vn 0.5483 0.0565 -0.8344
vn -0.4715 0.0488 -0.8805
vn -0.9268 0.0422 0.3731
vn 0.2711 0.0536 0.9611
vn 0.9132 0.0621 -0.4027
vn -0.9241 0.0867 0.3721
vn 0.2713 0.0386 0.9617
vn 0.9149 0.0150 -0.4034
vn -0.9299 0.0872 -0.3574
vn -0.4030 0.0625 0.9131
vn 0.8741 0.0174 0.4855
vn 0.5490 0.0277 -0.8354
vn -0.4709 0.0707 -0.8794
vn 0.5474 0.0812 -0.8329
vn -0.4696 0.1026 -0.8769
vn -0.9224 0.1065 0.3714
vn 0.2705 0.0856 0.9589
vn 0.9122 0.0786 -0.4022
vn -0.9281 0.1070 -0.3567
vn -0.4020 0.0916 0.9110
vn 0.8713 0.0807 0.4840
vn 0.3095 0.6014 -0.7365
vn 0.7164 0.6007 -0.3548
vn 0.6956 0.5833 0.4194
vn 0.3283 0.5779 0.7472
vn -0.4011 0.5585 0.7261
vn -0.6819 0.5549 0.4765
vn -0.7000 0.5887 -0.4043
vn -0.3565 0.6132 -0.7049
vn -0.3150 -0.6014 0.7342
vn -0.7116 -0.6002 0.3651
vn -0.6923 -0.5827 -0.4257
vn -0.3359 -0.5778 -0.7439
vn 0.4163 -0.5571 -0.7185
vn 0.6724 -0.5528 -0.4922
vn 0.6911 -0.5877 0.4207
vn 0.3653 -0.6126 0.7009
vn 0.1688 -0.6823 -0.7113
vn -0.2889 0.6823 0.6716
vn 0.7435 -0.6524 -0.1470
vn -0.7021 0.6593 0.2691
vn 0.6868 -0.6965 0.2079
vn -0.6614 0.7018 -0.2646
vn 0.2132 -0.7279 0.6517
vn -0.2985 0.7257 -0.6198
vn -0.1167 -0.7190 0.6851
vn 0.2404 0.7251 -0.6453
vn -0.6945 -0.6966 0.1798
vn 0.6514 0.7041 -0.2827
vn -0.7243 -0.6643 -0.1847
vn 0.6838 0.6662 0.2976
vn -0.0933 -0.6749 -0.7320
vn 0.2444 0.6860 0.6853
vn 0.2278 0.5485 -0.8046
vn 0.8173 0.5393 -0.2032
vn 0.8001 0.5456 0.2491
vn 0.2742 0.5474 0.7907
vn -0.1838 0.5578 0.8094
vn -0.8104 0.5428 0.2204
vn -0.8055 0.5448 -0.2333
vn -0.2824 0.5481 -0.7873
vn 0.3684 0.5682 -0.7358
vn 0.6640 0.6048 -0.4397
vn 0.7079 0.5965 0.3782
vn 0.2898 0.5613 0.7752
vn -0.3586 0.5314 0.7675
vn -0.7859 0.5185 0.3371
vn -0.7746 0.5146 -0.3675
vn -0.4705 0.5306 -0.7051
vn 0.3089 0.5166 -0.7986
vn 0.8043 0.5069 -0.3100
vn 0.8103 0.5259 0.2586
vn 0.3358 0.5087 0.7928
vn -0.2322 0.5861 0.7762
vn -0.7190 0.5816 0.3805
vn -0.7450 0.5208 -0.4167
vn -0.1990 0.5620 -0.8028
vn -0.1698 0.3066 -0.9366
vn -0.3797 0.3265 0.8656
vn 0.9284 0.2953 -0.2257
vn -0.7651 0.3446 0.5440
vn 0.9340 0.2968 0.1990
vn -0.7940 0.3548 -0.4936
vn 0.3175 0.3241 0.8911
vn 0.1986 0.3003 -0.9330
vn -0.2041 -0.5475 0.8115
vn -0.8227 -0.5377 0.1843
vn -0.8058 -0.5449 -0.2320
vn -0.2581 -0.5469 -0.7964
vn 0.1593 -0.5561 -0.8157
vn 0.8165 -0.5413 -0.2005
vn 0.8116 -0.5438 0.2134
vn 0.2733 -0.5479 0.7907
vn -0.3883 -0.5677 0.7259
vn -0.6505 -0.6020 0.4631
vn -0.6969 -0.5956 -0.3995
vn -0.2951 -0.5616 -0.7729
vn 0.3576 -0.5314 -0.7680
vn 0.7813 -0.5187 -0.3470
vn 0.7683 -0.5142 0.3811
vn 0.5042 -0.5272 0.6840
vn -0.2916 -0.5131 0.8073
vn -0.8117 -0.5037 0.2958
vn -0.8160 -0.5239 -0.2444
vn -0.3279 -0.5037 -0.7992
vn 0.2241 -0.5833 -0.7807
vn 0.7138 -0.5779 -0.3957
vn 0.7401 -0.5139 0.4338
vn 0.1859 -0.5599 0.8074
vn 0.1388 -0.1768 0.9744
vn 0.4144 -0.2060 -0.8865
vn -0.9706 -0.1778 0.1624
vn 0.7442 -0.2252 -0.6289
vn -0.9722 -0.1790 -0.1508
vn 0.7747 -0.2372 0.5861
vn -0.2863 -0.2091 -0.9350
vn -0.0761 -0.1747 0.9817
vn 0.4368 -0.7066 -0.5567
vn -0.2507 0.7181 0.6493
vn 0.5584 -0.7187 -0.4142
vn -0.6250 0.7326 0.2696
vn 0.5490 -0.7339 0.4000
vn -0.6154 0.7424 -0.2647
vn 0.4280 -0.7212 0.5447
vn -0.2466 0.7292 -0.6383
vn -0.4074 -0.6895 0.5989
vn 0.2879 0.7002 -0.6533
vn -0.5675 -0.6733 0.4739
vn 0.6707 0.6914 -0.2685
vn -0.5581 -0.6927 -0.4568
vn 0.6559 0.7065 0.2658
vn -0.4215 -0.7038 -0.5719
vn 0.2841 0.7139 0.6400
vn 0.1179 -0.6956 -0.7087
vn -0.3083 0.7009 0.6432
vn 0.7542 -0.6538 -0.0605
vn -0.6840 0.6796 0.2650
vn 0.7716 -0.6355 0.0281
vn -0.6998 0.6612 -0.2704
vn 0.0922 -0.7005 0.7077
vn -0.3087 0.7043 -0.6393
vn 0.0191 -0.6943 0.7194
vn 0.2203 0.7328 -0.6438
vn -0.6818 -0.7311 0.0256
vn 0.6069 0.7476 -0.2699
vn -0.6714 -0.7399 -0.0408
vn 0.5993 0.7560 0.2634
vn -0.0278 -0.6928 -0.7206
vn 0.2275 0.7209 0.6546
vn 0.4421 -0.7531 -0.4872
vn 0.4270 -0.7302 -0.5333
vn 0.4825 -0.7207 0.4977
vn 0.4788 -0.7255 0.4944
vn -0.5333 -0.6743 0.5109
vn -0.5560 -0.6789 0.4796
vn -0.5375 -0.7008 -0.4690
vn -0.4864 -0.7075 -0.5127
vt 0.554283 0.553348
vt 0.554284 0.597813
vt 0.555935 0.597813
vt 0.556449 0.551002
vt 0.556540 0.597813
vt 0.557218 0.548303
vt 0.555727 0.597813
vt 0.556446 0.549783
vt 0.554300 0.597813
vt 0.554459 0.550490
vt 0.552680 0.597813
vt 0.552275 0.553715
vt 0.552161 0.597813
vt 0.551648 0.560703
vt 0.552734 0.597813
vt 0.552124 0.557290
vt 0.551883 0.533364
vt 0.549929 0.532967
vt 0.551376 0.533406
vt 0.554383 0.533000
vt 0.554302 0.533125
vt 0.557525 0.532967
vt 0.557857 0.533035
vt 0.557162 0.533308
vt 0.555070 0.714399
vt 0.555557 0.714399
vt 0.553756 0.714399
vt 0.552454 0.714399
vt 0.552498 0.714399
vt 0.553743 0.714399
vt 0.554903 0.714399
vt 0.552037 0.714399
vt 0.554230 0.781639
vt 0.553094 0.781639
vt 0.555803 0.781639
vt 0.555232 0.781639
vt 0.554219 0.781639
vt 0.555378 0.781639
vt 0.553132 0.781639
vt 0.552729 0.781639
vt 0.553020 0.841287
vt 0.553326 0.841287
vt 0.554162 0.841287
vt 0.553297 0.841287
vt 0.555358 0.841287
vt 0.554924 0.841287
vt 0.554154 0.841287
vt 0.555035 0.841287
vt 0.553714 0.889548
vt 0.553506 0.889548
vt 0.554938 0.889548
vt 0.554365 0.889548
vt 0.555022 0.889548
vt 0.555265 0.889548
vt 0.553736 0.889548
vt 0.554358 0.889548
vt 0.554499 0.969801
vt 0.150753 0.572263
vt 0.150078 0.767170
vt 0.154746 0.768406
vt 0.170259 0.577425
vt 0.156680 0.768917
vt 0.178338 0.579563
vt 0.170259 0.577425
vt 0.145410 0.765935
vt 0.131247 0.567102
vt 0.143476 0.765423
vt 0.123167 0.564963
vt 0.151355 0.579084
vt 0.151813 0.773782
vt 0.156476 0.772943
vt 0.170839 0.575579
vt 0.158407 0.772596
vt 0.178910 0.574126
vt 0.151355 0.579085
vt 0.147149 0.774621
vt 0.131870 0.582590
vt 0.145218 0.774969
vt 0.123799 0.584042
vt 0.147149 0.774621
vt 0.150749 0.576648
vt 0.149812 0.745141
vt 0.153848 0.746857
vt 0.167612 0.583820
vt 0.155519 0.747569
vt 0.174596 0.586791
vt 0.145777 0.743424
vt 0.133887 0.569476
vt 0.144105 0.742714
vt 0.126902 0.566505
vt 0.133887 0.569476
vt 0.150197 0.533765
vt 0.150715 0.688820
vt 0.159192 0.689418
vt 0.169799 0.525351
vt 0.163844 0.673516
vt 0.177918 0.521866
vt 0.159385 0.685965
vt 0.150695 0.682957
vt 0.141190 0.680356
vt 0.130595 0.542178
vt 0.137902 0.688927
vt 0.122476 0.545663
vt 0.142196 0.695601
vt 0.130595 0.542178
vt 0.151296 0.970220
s 0
usemtl AllColors_Material
f 17/1/1 2/2/1 4/3/1 18/4/1
f 18/4/2 4/3/2 6/5/2 19/6/2
f 19/6/3 6/5/3 8/7/3 20/8/3
f 20/8/4 8/7/4 10/9/4 21/10/4
f 21/10/5 10/9/5 12/11/5 22/12/5
f 22/12/6 12/11/6 14/13/6 23/14/6
f 23/14/7 14/13/7 16/15/7 24/16/7
f 24/16/8 16/15/8 2/2/8 17/1/8
f 11/17/9 13/18/9 15/19/9
f 15/19/10 24/16/10 17/1/10 1/20/10
f 13/18/11 23/14/11 24/16/11 15/19/11
f 11/17/12 22/12/12 23/14/12 13/18/12
f 9/21/13 21/10/13 22/12/13 11/17/13
f 7/22/14 20/8/14 21/10/14 9/21/14
f 5/23/15 19/6/15 20/8/15 7/22/15
f 3/24/16 18/4/16 19/6/16 5/23/16
f 1/20/17 17/1/17 18/4/17 3/24/17
f 15/19/18 1/20/18 3/24/18
f 3/24/19 5/23/19 15/19/19
f 5/23/20 7/22/20 9/21/20
f 15/19/21 5/23/21 9/21/21
f 9/21/22 11/17/22 15/19/22
f 6/5/23 4/3/23 26/25/23 27/26/23
f 12/11/24 10/9/24 29/27/24 30/28/24
f 2/2/25 16/15/25 32/29/25 25/30/25
f 4/3/26 2/2/26 25/30/26 26/25/26
f 8/7/27 6/5/27 27/26/27 28/31/27
f 14/13/28 12/11/28 30/28/28 31/32/28
f 10/9/29 8/7/29 28/31/29 29/27/29
f 16/15/30 14/13/30 31/32/30 32/29/30
f 30/28/31 29/27/31 37/33/31 38/34/31
f 28/31/32 27/26/32 35/35/32 36/36/32
f 26/25/33 25/30/33 33/37/33 34/38/33
f 25/30/34 32/29/34 40/39/34 33/37/34
f 31/32/35 30/28/35 38/34/35 39/40/35
f 29/27/36 28/31/36 36/36/36 37/33/36
f 27/26/37 26/25/37 34/38/37 35/35/37
f 32/29/38 31/32/38 39/40/38 40/39/38
f 40/39/39 39/40/39 47/41/39 48/42/39
f 38/34/40 37/33/40 45/43/40 46/44/40
f 36/36/41 35/35/41 43/45/41 44/46/41
f 34/38/42 33/37/42 41/47/42 42/48/42
f 33/37/43 40/39/43 48/42/43 41/47/43
f 39/40/44 38/34/44 46/44/44 47/41/44
f 37/33/45 36/36/45 44/46/45 45/43/45
f 35/35/46 34/38/46 42/48/46 43/45/46
f 47/41/47 46/44/47 54/49/47 55/50/47
f 45/43/48 44/46/48 52/51/48 53/52/48
f 43/45/49 42/48/49 50/53/49 51/54/49
f 48/42/50 47/41/50 55/50/50 56/55/50
f 46/44/51 45/43/51 53/52/51 54/49/51
f 44/46/52 43/45/52 51/54/52 52/51/52
f 42/48/53 41/47/53 49/56/53 50/53/53
f 41/47/54 48/42/54 56/55/54 49/56/54
f 50/53/55 49/56/55 57/57/55
f 49/56/56 56/55/56 57/57/56
f 55/50/57 54/49/57 57/57/57
f 53/52/58 52/51/58 57/57/58
f 51/54/59 50/53/59 57/57/59
f 56/55/60 55/50/60 57/57/60
f 54/49/61 53/52/61 57/57/61
f 52/51/62 51/54/62 57/57/62
f 58/58/63 59/59/63 61/60/63 60/61/63
f 60/61/64 61/60/64 63/62/64 62/63/64
f 62/63/65 63/62/65 65/60/65 64/64/65
f 64/64/66 65/60/66 67/59/66 66/58/66
f 66/58/67 67/59/67 69/65/67 68/66/67
f 68/66/68 69/65/68 71/67/68 70/68/68
f 70/68/69 71/67/69 73/65/69 72/66/69
f 72/66/70 73/65/70 59/59/70 58/58/70
f 74/58/71 76/61/71 77/60/71 75/59/71
f 76/61/72 78/63/72 79/62/72 77/60/72
f 78/63/73 80/64/73 81/60/73 79/62/73
f 80/64/74 82/58/74 83/59/74 81/60/74
f 82/58/75 84/66/75 85/65/75 83/59/75
f 84/66/76 86/68/76 87/67/76 85/65/76
f 86/68/77 88/66/77 89/65/77 87/67/77
f 88/66/78 74/58/78 75/59/78 89/65/78
f 58/58/79 60/61/79 76/61/79 74/58/79
f 61/60/80 59/59/80 75/59/80 77/60/80
f 60/61/81 62/63/81 78/63/81 76/61/81
f 63/62/82 61/60/82 77/60/82 79/62/82
f 62/63/83 64/64/83 80/64/83 78/63/83
f 65/60/84 63/62/84 79/62/84 81/60/84
f 64/64/85 66/58/85 82/58/85 80/64/85
f 67/59/86 65/60/86 81/60/86 83/59/86
f 66/58/87 68/66/87 84/66/87 82/58/87
f 69/65/88 67/59/88 83/59/88 85/65/88
f 68/66/89 70/68/89 86/68/89 84/66/89
f 71/67/90 69/65/90 85/65/90 87/67/90
f 70/68/91 72/66/91 88/66/91 86/68/91
f 73/65/92 71/67/92 87/67/92 89/65/92
f 72/66/93 58/58/93 74/58/93 88/66/93
f 59/59/94 73/65/94 89/65/94 75/59/94
f 90/69/95 91/70/95 93/71/95 92/72/95
f 92/72/96 93/71/96 95/73/96 94/74/96
f 94/74/97 95/73/97 97/71/97 96/72/97
f 96/72/98 97/71/98 99/70/98 98/75/98
f 98/75/99 99/70/99 101/76/99 100/77/99
f 100/77/100 101/76/100 103/78/100 102/79/100
f 102/79/101 103/78/101 105/80/101 104/77/101
f 104/77/102 105/80/102 91/70/102 90/69/102
f 106/81/103 107/82/103 109/83/103 108/84/103
f 108/84/104 109/83/104 111/85/104 110/86/104
f 110/86/105 111/85/105 113/83/105 112/84/105
f 112/84/106 113/83/106 115/82/106 114/81/106
f 114/81/107 115/82/107 117/87/107 116/88/107
f 116/88/108 117/87/108 119/89/108 118/90/108
f 118/90/109 119/89/109 121/87/109 120/91/109
f 120/91/110 121/87/110 107/82/110 106/81/110
f 122/92/111 136/93/111 133/94/111 123/95/111
f 123/95/112 133/94/112 131/96/112 124/97/112
f 124/97/113 131/96/113 134/98/113 125/95/113
f 125/95/114 134/98/114 137/99/114 127/92/114
f 127/92/115 137/99/115 135/100/115 128/101/115
f 128/101/116 135/100/116 132/102/116 129/103/116
f 129/103/117 132/102/117 138/104/117 130/105/117
f 130/105/118 138/104/118 136/93/118 122/92/118
f 136/93/119 138/104/119 126/106/119
f 135/100/120 137/99/120 126/106/120
f 131/96/121 133/94/121 126/106/121
f 132/102/122 135/100/122 126/106/122
f 134/98/123 131/96/123 126/106/123
f 138/104/124 132/102/124 126/106/124
f 137/99/125 134/98/125 126/106/125
f 133/94/126 136/93/126 126/106/126
f 139/69/127 141/72/127 142/71/127 140/70/127
f 141/72/128 143/74/128 144/73/128 142/71/128
f 143/74/129 145/72/129 146/71/129 144/73/129
f 145/72/130 147/75/130 148/70/130 146/71/130
f 147/75/131 149/77/131 150/76/131 148/70/131
f 149/77/132 151/79/132 152/78/132 150/76/132
f 151/79/133 153/77/133 154/80/133 152/78/133
f 153/77/134 139/69/134 140/70/134 154/80/134
f 155/81/135 157/84/135 158/83/135 156/82/135
f 157/84/136 159/86/136 160/85/136 158/83/136
f 159/86/137 161/84/137 162/83/137 160/85/137
f 161/84/138 163/81/138 164/82/138 162/83/138
f 163/81/139 165/88/139 166/87/139 164/82/139
f 165/88/140 167/90/140 168/89/140 166/87/140
f 167/90/141 169/91/141 170/87/141 168/89/141
f 169/91/142 155/81/142 156/82/142 170/87/142
f 171/92/143 172/95/143 182/94/143 185/93/143
f 172/95/144 173/97/144 180/96/144 182/94/144
f 173/97/145 174/95/145 183/98/145 180/96/145
f 174/95/146 176/92/146 186/99/146 183/98/146
f 176/92/147 177/101/147 184/100/147 186/99/147
f 177/101/148 178/103/148 181/102/148 184/100/148
f 178/103/149 179/105/149 187/104/149 181/102/149
f 179/105/150 171/92/150 185/93/150 187/104/150
f 185/93/151 175/106/151 187/104/151
f 184/100/152 175/106/152 186/99/152
f 180/96/153 175/106/153 182/94/153
f 181/102/154 175/106/154 184/100/154
f 183/98/155 175/106/155 180/96/155
f 187/104/156 175/106/156 181/102/156
f 186/99/157 175/106/157 183/98/157
f 182/94/158 175/106/158 185/93/158
f 90/69/159 92/72/159 141/72/159 139/69/159
f 93/71/160 91/70/160 140/70/160 142/71/160
f 92/72/161 94/74/161 143/74/161 141/72/161
f 95/73/162 93/71/162 142/71/162 144/73/162
f 94/74/163 96/72/163 145/72/163 143/74/163
f 97/71/164 95/73/164 144/73/164 146/71/164
f 96/72/165 98/75/165 147/75/165 145/72/165
f 99/70/166 97/71/166 146/71/166 148/70/166
f 98/75/167 100/77/167 149/77/167 147/75/167
f 101/76/168 99/70/168 148/70/168 150/76/168
f 100/77/169 102/79/169 151/79/169 149/77/169
f 103/78/170 101/76/170 150/76/170 152/78/170
f 102/79/171 104/77/171 153/77/171 151/79/171
f 105/80/172 103/78/172 152/78/172 154/80/172
f 104/77/173 90/69/173 139/69/173 153/77/173
f 91/70/174 105/80/174 154/80/174 140/70/174
f 106/81/175 108/84/175 157/84/175 155/81/175
f 109/83/176 107/82/176 156/82/176 158/83/176
f 108/84/177 110/86/177 159/86/177 157/84/177
f 111/85/178 109/83/178 158/83/178 160/85/178
f 110/86/179 112/84/179 161/84/179 159/86/179
f 113/83/180 111/85/180 160/85/180 162/83/180
f 112/84/181 114/81/181 163/81/181 161/84/181
f 115/82/182 113/83/182 162/83/182 164/82/182
f 114/81/183 116/88/183 165/88/183 163/81/183
f 117/87/184 115/82/184 164/82/184 166/87/184
f 116/88/185 118/90/185 167/90/185 165/88/185
f 119/89/186 117/87/186 166/87/186 168/89/186
f 118/90/187 120/91/187 169/91/187 167/90/187
f 121/87/188 119/89/188 168/89/188 170/87/188
f 120/91/189 106/81/189 155/81/189 169/91/189
f 107/82/190 121/87/190 170/87/190 156/82/190
f 122/92/191 123/95/191 172/95/191 171/92/191
f 123/95/192 124/97/192 173/97/192 172/95/192
f 124/97/193 125/95/193 174/95/193 173/97/193
f 125/95/194 127/92/194 176/92/194 174/95/194
f 127/92/195 128/101/195 177/101/195 176/92/195
f 128/101/196 129/103/196 178/103/196 177/101/196
f 129/103/197 130/105/197 179/105/197 178/103/197
f 130/105/198 122/92/198 171/92/198 179/105/198
